<svg xmlns="http://www.w3.org/2000/svg" width="175" height="41" viewBox="0 0 175 41">
    <path fill="#FFF" fill-rule="evenodd" d="M7.25 40.75c-.867.133-1.433.2-1.7.2-.667 0-1.467-.133-2.4-.4-.433-.133-.75-.283-.95-.45a4.938 4.938 0 0 1-.675-.725c-.25-.317-.442-.558-.575-.725-.6-.833-.9-1.567-.9-2.2 0-.5.233-.683.7-.55.333.167.7.5 1.1 1 .4.4.833.692 1.3.875.467.183 1.033.275 1.7.275.233 0 .683-.033 1.35-.1.8-.133 1.733-.383 2.8-.75 1.067-.367 1.85-.75 2.35-1.15 1.6-1.1 2.908-1.983 3.925-2.65a147.24 147.24 0 0 1 1.925-1.25c.067-.167.417-.367 1.05-.6l1.35-1.3c.867-.933 1.433-1.5 1.7-1.7.033-.233.092-.475.175-.725.083-.25.125-.442.125-.575.4-.433 1-1.475 1.8-3.125s1.35-3.075 1.65-4.275c.3-1.567.45-2.95.45-4.15 0-2.033-.358-3.742-1.075-5.125S22.667 7.917 21.3 6.75c-.7-.567-1.858-1.192-3.475-1.875S15.267 3.9 15 4c-.167.033-.617.992-1.35 2.875-.733 1.883-1.733 4.592-3 8.125l-1.6 4.45a16.002 16.002 0 0 1-.45 1.5c-.167.467-.3.883-.4 1.25-.433 1.233-.65 1.933-.65 2.1-.367.567-.658 1.308-.875 2.225-.217.917-.458 2.475-.725 4.675-.3 1.1-.433 1.6-.4 1.5a42.46 42.46 0 0 1-.35 1.4c-.1.367-.2.533-.3.5l-.2.2c0 .2-.15.3-.45.3-.267 0-.567-.075-.9-.225-.333-.15-.6-.325-.8-.525-.133-.467-.2-.8-.2-1 0-.433.133-1.1.4-2 .267-1.133.708-2.725 1.325-4.775A184.98 184.98 0 0 1 5.65 21.55c.233-.567.567-1.633 1-3.2.367-1.233.775-2.5 1.225-3.8.45-1.3.775-2.117.975-2.45.067-.233.292-.9.675-2 .383-1.1.842-2.317 1.375-3.65l.35-1.65-.55-.25c-.3.1-.567.15-.8.15-.167 0-.35-.05-.55-.15-.333.1-.792-.042-1.375-.425S7.067 3.383 7 3.05c-.067-.1-.108-.25-.125-.45a6.034 6.034 0 0 1-.025-.4c.067-.333.733-.642 2-.925C10.117.992 11.5.85 13 .85a15.7 15.7 0 0 1 1.45.05c.6.033 1.175.133 1.725.3.55.167 1.225.417 2.025.75l1.2.45c1.067.4 2.208 1.1 3.425 2.1 1.217 1 2.3 2.175 3.25 3.525.95 1.35 1.592 2.725 1.925 4.125.1.433.2 1.033.3 1.8.1.767.15 1.45.15 2.05 0 .7-.067 1.133-.2 1.3a.81.81 0 0 0-.15.5c0 .2.067.317.2.35-.067.2-.183.567-.35 1.1-.167.533-.35 1.1-.55 1.7-.2 2.1-1.133 4.567-2.8 7.4a.9.9 0 0 0-.4.075c-.1.05-.083.092.05.125 0 .167-.183.483-.55.95-.1.067-.308.308-.625.725s-.542.675-.675.775a.924.924 0 0 1-.3.575c-.167.15-.317.225-.45.225l-.075.025c-.05.017-.075.075-.075.175-.6.867-1.692 1.933-3.275 3.2-1.583 1.267-2.992 2.167-4.225 2.7-.333.233-.725.45-1.175.65-.45.2-.758.333-.925.4-.267.233-.942.558-2.025.975-1.083.417-1.958.692-2.625.825zm23-6.55a2.48 2.48 0 0 0-.475-.625c-.217-.217-.325-.358-.325-.425 0-.367-.083-.65-.25-.85-.067-.067-.1-.217-.1-.45 0-.533.258-1.442.775-2.725.517-1.283 1.192-2.675 2.025-4.175.2-.2.458-.55.775-1.05s.525-.783.625-.85c0-.133.05-.258.15-.375a.45.45 0 0 1 .35-.175v-.3c0-.3.55-1.025 1.65-2.175 1.1-1.15 2-1.942 2.7-2.375.833-.567 1.683-.85 2.55-.85.6 0 1.117.167 1.55.5.167.2.933.917 2.3 2.15l1.85 1.65-.9 2.5c-.3.9-.45 1.717-.45 2.45 0 1.267.367 2.483 1.1 3.65.167.367.5.717 1 1.05.5.333 1 .533 1.5.6.733.133 1.1.5 1.1 1.1 0 .667-.3 1.067-.9 1.2-.133.033-.333.05-.6.05-1.967 0-3.667-1.383-5.1-4.15-.133-.2-.308-.567-.525-1.1-.217-.533-.342-.9-.375-1.1-.2.267-.45.583-.75.95s-.583.683-.85.95c-3.633 3.633-6.5 5.45-8.6 5.45a3.326 3.326 0 0 1-1.8-.5zm1.8-2.8c0 .167.175.217.525.15.35-.067.783-.233 1.3-.5A9.236 9.236 0 0 0 35.45 30c2.867-2.467 4.933-4.617 6.2-6.45l1.1-1.8c-.333-.7-.683-1.208-1.05-1.525-.367-.317-.7-.475-1-.475-.7 0-1.8.875-3.3 2.625-1.5 1.75-2.867 3.808-4.1 6.175a17.87 17.87 0 0 0-.8 1.725l-.45 1.125zm37.4 2.3c-.667 0-1.217-.142-1.65-.425-.433-.283-.8-.758-1.1-1.425-.3-1.067-.45-2.133-.45-3.2 0-.5.05-.85.15-1.05.133-.133.192-.425.175-.875a29.78 29.78 0 0 1-.025-.975c-.033-.767-.267-1.15-.7-1.15-.3 0-.633.117-1 .35a245.55 245.55 0 0 0-4.7 3 32.17 32.17 0 0 0-3.65 2.8c-.467.533-.817 1-1.05 1.4-.233.4-.4.675-.5.825a.46.46 0 0 1-.4.225c-.2.067-.333.1-.4.1-.167 0-.367-.092-.6-.275a6.252 6.252 0 0 1-.45-.375c-.133-.133-.35-.358-.65-.675-.3-.317-.467-.542-.5-.675 0-.267.108-.883.325-1.85.217-.967.392-1.583.525-1.85.1 0 .25-.208.45-.625.2-.417.383-.742.55-.975.1-.5.533-1.65 1.3-3.45.467-.8.792-1.467.975-2 .183-.533.308-1.2.375-2v-.1c0-.133.05-.242.15-.325a.47.47 0 0 1 .3-.125c.233-.167.45-.25.65-.25.433 0 .867.267 1.3.8.5.633.75 1.3.75 2 0 .867-.55 2.233-1.65 4.1l-.425 1c-.183.433-.275.733-.275.9l2.8-1.9c.267-.3.983-.833 2.15-1.6 1.167-.767 1.983-1.2 2.45-1.3.8-.367 1.3-.55 1.5-.55.4 0 .942.3 1.625.9.683.6 1.092 1.1 1.225 1.5 0 .367.033.633.1.8.167.667.25 1.45.25 2.35 0 .6-.042 1.142-.125 1.625-.083.483-.192.758-.325.825 0 .033.017.083.05.15.033.067.1.1.2.1v.25c-.267 0-.3.283-.1.85.2.567.467 1 .8 1.3.333.333.5.667.5 1 0 .4-.3.683-.9.85zM82.5 14.5c-.1.1-.2.15-.3.15-.133 0-.35-.1-.65-.3-.333-.033-.775-.325-1.325-.875-.55-.55-.825-.908-.825-1.075-.067-.667.033-1.383.3-2.15.267-.767.75-1.167 1.45-1.2.1 0 .233.025.4.075.167.05.45.158.85.325l.425.85c.217.433.383.85.5 1.25.117.4.175.767.175 1.1 0 .8-.333 1.417-1 1.85zm-5.65 19.95c-.5 0-.942-.317-1.325-.95s-.608-1.267-.675-1.9c.133-1.267.233-2.167.3-2.7.267-1.233.692-2.925 1.275-5.075.583-2.15.942-3.358 1.075-3.625.1-.167.25-.25.45-.25s.417.067.65.2c.233.133.433.283.6.45.267.367.4.783.4 1.25 0 .7-.333 2.167-1 4.4-.467 1.667-.767 2.85-.9 3.55-.133.7-.183 1.45-.15 2.25-.033.233-.092.625-.175 1.175-.083.55-.158.892-.225 1.025-.067.133-.167.2-.3.2zM87.35 37c-1.167-.9-1.933-1.608-2.3-2.125-.367-.517-.583-1.158-.65-1.925-.033-.167-.05-.467-.05-.9 0-.933.083-2.1.25-3.5.167-1.4.333-2.517.5-3.35.133-.133.208-.333.225-.6.017-.267.008-.433-.025-.5 0-.1.083-.433.25-1 .4-1.233.683-2.267.85-3.1.9-2.733 1.783-4.917 2.65-6.55a35.781 35.781 0 0 1 2.9-4.6c1.433-1.467 2.558-2.542 3.375-3.225A12.384 12.384 0 0 1 98.05 3.9c1.3-.767 2.233-1.15 2.8-1.15.1 0 .25.033.45.1 1.867.4 3.267 1.158 4.2 2.275.933 1.117 1.617 2.842 2.05 5.175.3 2.033.45 3.567.45 4.6 0 1.667-.3 3.35-.9 5.05-.6 1.7-1.683 3.833-3.25 6.4-1.8 3.533-3.925 6.367-6.375 8.5s-4.758 3.2-6.925 3.2c-1.167 0-2.233-.35-3.2-1.05zm3.2-1.45c1.133-.133 2.208-.575 3.225-1.325s2.275-1.992 3.775-3.725c1.3-1.5 2.225-2.633 2.775-3.4.55-.767 1.042-1.683 1.475-2.75.433-1.067.967-2.7 1.6-4.9.367-1.4.608-2.492.725-3.275.117-.783.175-1.725.175-2.825l-.05-3.25a7.113 7.113 0 0 0-.35-1.775c-.2-.617-.433-1.075-.7-1.375-.5-.567-1.15-.85-1.95-.85-.5 0-.983.117-1.45.35-.633.267-1.567 1.042-2.8 2.325a37.978 37.978 0 0 0-3.325 3.95c-.983 1.35-1.475 2.225-1.475 2.625 0 .033-.017.133-.05.3a1.1 1.1 0 0 1-.2.45c-.567.6-1.2 1.817-1.9 3.65a52.141 52.141 0 0 0-1.85 5.95c-.533 2.133-.833 3.917-.9 5.35l-.1 1.7c0 .3.025.533.075.7.05.167.158.358.325.575.167.217.317.442.45.675.167.267.433.483.8.65.367.167.75.25 1.15.25.233 0 .417-.017.55-.05zm18.65-1.9c-.367-.2-.625-.4-.775-.6-.15-.2-.225-.483-.225-.85 0-.667.2-1.733.6-3.2.1-.833.208-1.508.325-2.025a5.175 5.175 0 0 1 .625-1.525c.133-.5.367-1.25.7-2.25.733-2.333 1.233-4.133 1.5-5.4.267-.733.5-1.383.7-1.95.2-.567.383-1.083.55-1.55-.067.2.35-.933 1.25-3.4.267-.8.45-1.417.55-1.85.367-1.5.783-2.633 1.25-3.4.233-.333.408-.617.525-.85.117-.233.225-.417.325-.55 0-.067.05-.125.15-.175.1-.05.217-.075.35-.075.4 0 .733.133 1 .4.167-.067.375.133.625.6.25.467.358.833.325 1.1 0 .433-.117.833-.35 1.2-.133.133-.283.375-.45.725a13.5 13.5 0 0 1-.45.875 115.9 115.9 0 0 0-.325 1.175c-.15.55-.292 1.008-.425 1.375-.167.4-.325.775-.475 1.125-.15.35-.275.658-.375.925a33.2 33.2 0 0 1-.7 1.95c-.467 1.133-.783 2.017-.95 2.65-.067.2-.183.617-.35 1.25-.467 1.667-.917 2.883-1.35 3.65-.267.433-.458 1.017-.575 1.75a51.357 51.357 0 0 1-.225 1.35c-.5 1.5-.75 2.383-.75 2.65-.067.3-.183.883-.35 1.75-.2 1.067-.4 1.833-.6 2.3-.067.767-.317 1.15-.75 1.15-.267 0-.567-.1-.9-.3zm11.15 1.15c-1.067-.433-1.817-.992-2.25-1.675-.433-.683-.65-1.642-.65-2.875 0-.6.05-1.3.15-2.1l.1-1.8c0-.3-.033-.533-.1-.7-.067-.167-.217-.35-.45-.55l-.5-.5c-.267-.267-.383-.483-.35-.65l-.05-.25c0-.233.042-.45.125-.65.083-.2.175-.3.275-.3.1 0 .233-.025.4-.075a.844.844 0 0 1 .45-.025c.467 0 .7.1.7.3.133.267.358.292.675.075.317-.217.625-.642.925-1.275.467-.733 1.158-1.508 2.075-2.325.917-.817 1.675-1.392 2.275-1.725.233-.133.617-.258 1.15-.375.533-.117 1-.175 1.4-.175.6 0 1.125.133 1.575.4.45.267.908.65 1.375 1.15.633.467.95 1.2.95 2.2 0 .7-.167 1.417-.5 2.15-.133.5-.658 1.133-1.575 1.9-.917.767-1.758 1.3-2.525 1.6-.933.233-2 .35-3.2.35-.8 0-1.317-.067-1.55-.2-.4-.233-.683.667-.85 2.7-.033.233-.05.55-.05.95 0 .567.083 1.017.25 1.35.033.033.15.158.35.375.2.217.45.4.75.55.3.15.617.225.95.225.3 0 .533-.033.7-.1.367-.1.717-.292 1.05-.575.333-.283.8-.725 1.4-1.325.533-.533.917-.9 1.15-1.1.167-.3.5-.45 1-.45.133 0 .367.033.7.1.3.233.45.483.45.75s-.167.767-.5 1.5c-.167.333-.575.792-1.225 1.375-.65.583-1.225 1.042-1.725 1.375-1.033.567-2.067.85-3.1.85-.633 0-1.367-.15-2.2-.45zm2.95-10.15c.333-.067.817-.15 1.45-.25s1.158-.325 1.575-.675c.417-.35.908-.958 1.475-1.825.1-.267.15-.533.15-.8 0-.5-.1-.85-.3-1.05-.233-.233-.5-.35-.8-.35-.467 0-.95.2-1.45.6-.333.1-.825.467-1.475 1.1a16.77 16.77 0 0 0-1.675 1.875c-.467.617-.617.975-.45 1.075-.067.1.1.175.5.225.4.05.733.075 1 .075zm10.15 9.55a2.48 2.48 0 0 0-.475-.625c-.217-.217-.325-.358-.325-.425 0-.367-.083-.65-.25-.85-.067-.067-.1-.217-.1-.45 0-.533.258-1.442.775-2.725.517-1.283 1.192-2.675 2.025-4.175.2-.2.458-.55.775-1.05s.525-.783.625-.85c0-.133.05-.258.15-.375a.45.45 0 0 1 .35-.175v-.3c0-.3.55-1.025 1.65-2.175 1.1-1.15 2-1.942 2.7-2.375.833-.567 1.683-.85 2.55-.85.6 0 1.117.167 1.55.5.167.2.933.917 2.3 2.15l1.85 1.65-.9 2.5c-.3.9-.45 1.717-.45 2.45 0 1.267.367 2.483 1.1 3.65.167.367.5.717 1 1.05.5.333 1 .533 1.5.6.733.133 1.1.5 1.1 1.1 0 .667-.3 1.067-.9 1.2-.133.033-.333.05-.6.05-1.967 0-3.667-1.383-5.1-4.15-.133-.2-.308-.567-.525-1.1-.217-.533-.342-.9-.375-1.1-.2.267-.45.583-.75.95s-.583.683-.85.95c-3.633 3.633-6.5 5.45-8.6 5.45a3.326 3.326 0 0 1-1.8-.5zm1.8-2.8c0 .167.175.217.525.15.35-.067.783-.233 1.3-.5A9.236 9.236 0 0 0 138.65 30c2.867-2.467 4.933-4.617 6.2-6.45l1.1-1.8c-.333-.7-.683-1.208-1.05-1.525-.367-.317-.7-.475-1-.475-.7 0-1.8.875-3.3 2.625-1.5 1.75-2.867 3.808-4.1 6.175a17.87 17.87 0 0 0-.8 1.725l-.45 1.125zm22.1 2.4c-.1 0-.275-.083-.525-.25a4.097 4.097 0 0 1-.625-.5c-.233-.233-.375-.483-.425-.75-.05-.267-.075-.883-.075-1.85 0-1.033.208-2.167.625-3.4.417-1.233 1.158-3.017 2.225-5.35l1.65-3.5c.1-.233.333-.567.7-1h.5c.233 0 .492.15.775.45.283.3.492.65.625 1.05 0 .533-.075 1.033-.225 1.5-.15.467-.542 1.117-1.175 1.95-.267.4-.583 1.033-.95 1.9s-.617 1.6-.75 2.2c-.1.167-.225.45-.375.85-.15.4-.325.817-.525 1.25l-.25 1.1L161.9 26c1.467-1.467 2.658-2.533 3.575-3.2.917-.667 1.675-1 2.275-1 .7 0 1.267.45 1.7 1.35.3.5.5.892.6 1.175.1.283.15.725.15 1.325 0 .2-.033.767-.1 1.7v3.1a6.73 6.73 0 0 0 1.275-.4c.383-.167.675-.283.875-.35.767-.333 1.617-.533 2.55-.6-.067.567-.317 1.183-.75 1.85a6.133 6.133 0 0 1-1.6 1.675c-.633.45-1.25.675-1.85.675-.467 0-.958-.217-1.475-.65-.517-.433-.892-.917-1.125-1.45-.133-.367-.208-.817-.225-1.35a76.936 76.936 0 0 1-.025-2.25v-1.85c0-.333-.1-.5-.3-.5-.133 0-.45.2-.95.6-.667.6-1.75 1.683-3.25 3.25-1.433 1.5-2.675 2.658-3.725 3.475-1.05.817-1.775 1.225-2.175 1.225z"/>
</svg>
