<svg xmlns="http://www.w3.org/2000/svg" width="43" height="40" viewBox="0 0 43 40">
    <path fill="#FFF" fill-rule="nonzero" d="M5.12 12.91c0 .134.135.202.407.202.188 0 1.04-.116 2.557-.346 1.516-.231 2.891-.356 4.126-.376-1.38.347-2.568.698-3.561 1.053-.994.356-2.019.75-3.075 1.182-1.056.433-1.814.721-2.275.865-.46.145-.857.217-1.193.217-1.066 0-1.599-.634-1.599-1.903 0-3.269.9-5.566 2.698-6.893.732-.538 1.91-1.177 3.53-1.918 1.62-.74 3.45-1.442 5.49-2.105s4.283-1.235 6.73-1.716a37.539 37.539 0 0 1 7.248-.72c2.447 0 4.695.326 6.745.98 2.05.653 3.765 1.571 5.145 2.754a11.831 11.831 0 0 1 3.185 4.34c.742 1.711 1.114 3.634 1.114 5.768 0 3.25-1.02 6.402-3.06 9.46-2.039 3.056-4.758 5.753-8.156 8.088-3.4 2.336-7.232 4.187-11.5 5.552-4.266 1.365-8.47 2.047-12.612 2.047-.773 0-1.385-.076-1.835-.23a1.543 1.543 0 0 1-.957-.909c-.188-.451-.282-1.12-.282-2.004 0-1.096.094-1.99.282-2.682.189-.692.502-1.49.941-2.394C8.225 25.09 13.464 17.37 20.932 8.065c-1.507.154-3.16.446-4.957.879a70.146 70.146 0 0 0-5.115 1.428c-1.61.519-2.97 1.018-4.078 1.499-1.109.48-1.663.827-1.663 1.039zm23.523-.308c1.036-.493 2.03-.849 2.984-1.066.954-.216 2.065-.312 3.333-.287-.38-1.347-.813-2.332-1.3-2.952-.485-.621-1.212-.957-2.179-1.007-1.184-.062-2.752.406-4.702 1.406-1.95 1-3.902 2.362-5.856 4.087a25.667 25.667 0 0 0-4.936 5.86c-1.336 2.182-2.063 4.392-2.181 6.63-.088 1.666.092 3.13.537 4.391.446 1.262 1.105 2.241 1.976 2.937.872.696 1.9 1.075 3.084 1.137 1.607.084 3.402-.366 5.385-1.351a16.413 16.413 0 0 0 5.178-4.03 26.648 26.648 0 0 0 2.854-4.039 24.071 24.071 0 0 0 1.954-4.26c.476-1.406.743-2.662.802-3.767a4.68 4.68 0 0 0-.315-1.998 3.297 3.297 0 0 0-1.191-1.51c-.547-.384-1.214-.597-2.004-.638a6.548 6.548 0 0 0-1.139.043c-.392.047-.777.11-1.157.186l-1.127.228z"/>
</svg>
