<svg xmlns="http://www.w3.org/2000/svg" width="84" height="80" viewBox="0 0 84 80">
    <defs>
        <linearGradient id="a" x1="50%" x2="50%" y1="100%" y2="0%">
            <stop offset="0%" stop-color="#FFAA9C"/>
            <stop offset="100%" stop-color="#CC5054"/>
        </linearGradient>
        <linearGradient id="b" x1="50%" x2="50%" y1="0%" y2="100%">
            <stop offset="0%" stop-color="#FFAA9C"/>
            <stop offset="100%" stop-color="#CC5054"/>
        </linearGradient>
    </defs>
    <g fill="none" fill-rule="evenodd">
        <path fill="url(#a)" d="M19.497 30.574c0 .19.191.285.574.285.265 0 1.466-.163 3.602-.488 2.136-.326 4.073-.502 5.812-.53-1.945.489-3.617.984-5.016 1.486-1.4.501-2.844 1.057-4.332 1.667-1.487.61-2.555 1.017-3.204 1.22-.648.204-1.208.306-1.68.306-1.502 0-2.253-.895-2.253-2.685 0-4.61 1.267-7.851 3.8-9.723 1.032-.759 2.69-1.66 4.973-2.705 2.283-1.044 4.861-2.034 7.734-2.97 2.872-.935 6.032-1.742 9.48-2.42A52.807 52.807 0 0 1 49.196 13c3.447 0 6.614.461 9.501 1.383 2.888.922 5.304 2.217 7.248 3.885 1.945 1.668 3.44 3.709 4.486 6.123C71.477 26.804 72 29.516 72 32.527c0 4.583-1.436 9.03-4.309 13.343-2.873 4.312-6.703 8.116-11.49 11.41-4.788 3.296-10.187 5.906-16.198 7.832C33.993 67.037 28.07 68 22.237 68c-1.09 0-1.952-.108-2.586-.325-.633-.217-1.082-.645-1.348-1.282-.265-.637-.397-1.58-.397-2.827 0-1.546.132-2.807.397-3.783.266-.977.707-2.102 1.326-3.377 4.243-8.651 11.623-19.54 22.142-32.666-2.122.217-4.45.63-6.983 1.24a98.702 98.702 0 0 0-7.204 2.014c-2.268.732-4.183 1.437-5.745 2.115-1.562.678-2.342 1.167-2.342 1.465zm33.136-.434c1.46-.696 2.86-1.197 4.204-1.503 1.343-.306 2.908-.441 4.694-.405-.535-1.901-1.145-3.29-1.83-4.165-.684-.876-1.708-1.35-3.07-1.42-1.668-.088-3.876.573-6.623 1.983-2.747 1.41-5.497 3.332-8.25 5.766a36.193 36.193 0 0 0-6.953 8.266c-1.882 3.077-2.906 6.195-3.072 9.352-.123 2.35.13 4.414.757 6.194.628 1.78 1.556 3.161 2.783 4.143 1.228.981 2.676 1.516 4.345 1.603 2.263.119 4.791-.516 7.585-1.905a23.125 23.125 0 0 0 7.294-5.685 37.59 37.59 0 0 0 4.02-5.697c1.164-2.025 2.081-4.028 2.753-6.01.67-1.983 1.047-3.754 1.13-5.313a6.61 6.61 0 0 0-.445-2.818 4.65 4.65 0 0 0-1.677-2.13c-.77-.542-1.71-.843-2.823-.9a9.211 9.211 0 0 0-1.604.06c-.552.067-1.095.155-1.63.262-.534.107-1.063.215-1.588.322z"/>
        <path stroke="url(#b)" stroke-width="4.2" d="M2.1 2.1h79.8v75.8H2.1z"/>
    </g>
</svg>
